<svg version="1.1" xmlns="http://www.w3.org/2000/svg" width="64" height="64" viewBox="6220 2994.810302734375 3560 2962.573486328125" preserveAspectRatio="xMidYMid meet" xmlns:xlink="http://www.w3.org/1999/xlink" transform="matrix(1,0,0,-1,0,0)"><g fill="#000000" stroke="none"><path d="M7970 5954 c-37 -7 -135 -58 -135 -70 0 -6 29 -33 65 -61 342 -262
431 -777 195 -1133 -24 -36 -57 -78 -74 -94 -17 -17 -31 -33 -31 -36 0 -4 24
-23 54 -44 70 -48 151 -134 209 -221 50 -76 113 -217 123 -278 4 -20 11 -40
15 -43 13 -8 11 1630 -2 1685 -26 115 -110 224 -204 267 -53 25 -158 38 -215
28z"></path><path d="M6222 4483 l3 -1468 620 0 c567 0 627 2 705 19 149 32 314 102 406
171 l31 24 -52 53 c-90 94 -167 221 -215 358 -13 36 -24 66 -26 68 -1 2 -25
-21 -53 -51 -35 -37 -74 -65 -124 -88 l-72 -34 -338 -3 -337 -3 2 383 3 383
270 3 c149 2 304 -2 346 -7 100 -13 177 -48 243 -111 74 -70 102 -136 121
-286 19 -144 52 -254 108 -356 138 -252 380 -440 662 -514 140 -37 346 -39
480 -5 387 99 694 421 760 795 13 76 15 233 15 1112 l0 1024 -280 0 -280 0 -2
-1047 -3 -1048 -37 -77 c-48 -96 -118 -167 -215 -215 -61 -30 -85 -36 -160
-40 -256 -15 -434 128 -498 400 -49 211 -107 322 -234 447 -48 48 -113 100
-149 120 -102 57 -101 56 -72 76 14 9 57 49 95 88 253 255 256 690 9 990 -76
92 -151 148 -279 211 -190 92 -155 89 -848 93 l-607 3 2 -1468z m1194 907 c56
-29 76 -46 110 -95 114 -162 63 -383 -107 -470 -73 -38 -153 -46 -409 -43
l-235 3 -3 323 -2 323 288 -3 289 -3 69 -35z"></path></g></svg>